<?xml version="1.0" encoding="utf-8"?>
<!-- Generator: Adobe Illustrator 24.2.3, SVG Export Plug-In . SVG Version: 6.00 Build 0)  -->
<svg version="1.1" id="_x30_3030b4a-9996-4111-83fa-29dc66776d7b"
	 xmlns="http://www.w3.org/2000/svg" xmlns:xlink="http://www.w3.org/1999/xlink" x="0px" y="0px" viewBox="0 0 1000.8 738.8"
	 style="enable-background:new 0 0 1000.8 738.8;" xml:space="preserve">
<style type="text/css">
	.st0{opacity:0.1;fill:#00BFA6;enable-background:new    ;}
	.st1{fill:url(#SVGID_1_);}
	.st2{fill:#F6F7F9;}
	.st3{opacity:0.2;}
	.st4{fill:#00BFA6;}
	.st5{fill:url(#SVGID_2_);}
	.st6{fill:#E8EAF1;}
	.st7{fill:#3F3D56;}
	.st8{opacity:0.1;enable-background:new    ;}
	.st9{fill:#D0CDE1;}
	.st10{fill:#FFB9B9;}
	.st11{fill:#2F2E41;}
	.st12{fill:#575866;}
	.st13{opacity:0.3;fill:#00BFA6;}
	.st14{enable-background:new    ;}
</style>
<path class="st0" d="M59.5,506.6c-2.3,6.6-5,13.1-8.3,19.3c-3.6,6.8-7.8,14.1-6.6,21.7c3.2,18.7,28.9,17,42.1,24
	c15.9,8.5,21.6,28.9,20.3,46.9c-1.3,18-7.8,35.2-9.6,53.2c-1.8,17.9,2.6,38.4,17.7,48.2c11.5,7.5,26.6,6.9,39.7,3
	c44.6-13.6,78.9-47.6,126-57.7c55.7-11.9,113.1,4.1,169,14.9c56,10.8,118.2,15.2,165.9-16c23.1-15.1,42.3-38.3,69.4-43.7
	c20.2-4,41.2,3,59.2,13c26.8,14.8,51.3,33.5,78.4,48c49.6,26.4,111.6,32.6,143.3-22.5c31.3-54.5,55-149.2-10.8-188.7
	c-22.5-13.5-54.6-29.1-56.3-59.1c-0.9-16.4,9.1-31.2,18.1-45c35.7-54.5,62.9-117.9,58.2-182.9c-4.6-63.8-55.9-150.3-129.6-141.5
	c-65.3,7.8-117.7,74.9-186.7,58.1c-32.5-7.9-51.9-37.8-77.1-57.2C551.5,19.1,512.6,7.3,475.1,2.7c-73.4-9-208.3-12.5-251.9,62.9
	c-15.4,26.7-15.6,57.1-44,75.3c-36.2,23.2-84.1,10.4-126,19.9c-20.1,4.6-34.7,17.6-40.3,37.8c-4.1,14.7-3.1,30.4,0.1,45.4
	C26.5,309.2,63.1,367.5,68,434.8C69.7,459,67.4,483.8,59.5,506.6z"/>
<g>
	
		<linearGradient id="SVGID_1_" gradientUnits="userSpaceOnUse" x1="631.8302" y1="275.5585" x2="631.8302" y2="666.7315" gradientTransform="matrix(1 0 0 -1 0 740)">
		<stop  offset="0" style="stop-color:#808080;stop-opacity:0.25"/>
		<stop  offset="0.54" style="stop-color:#808080;stop-opacity:0.12"/>
		<stop  offset="1" style="stop-color:#808080;stop-opacity:0.1"/>
	</linearGradient>
	<polygon class="st1" points="341.6,73.3 341.6,103.8 341.6,464.4 922,464.4 922,103.8 922,73.3 	"/>
	<rect x="348.3" y="77.4" class="st2" width="567.1" height="29.9"/>
	<g class="st3">
		<rect x="348.3" y="77.4" class="st4" width="567.1" height="29.9"/>
	</g>
	<rect x="348.3" y="107.3" class="st2" width="567.1" height="353"/>
	<circle class="st2" cx="363" cy="92.2" r="6.6"/>
	<circle class="st2" cx="380.7" cy="92.2" r="6.6"/>
	<circle class="st2" cx="398.4" cy="92.2" r="6.6"/>
	<g class="st3">
		<rect x="369.7" y="151.2" class="st4" width="316.5" height="22.9"/>
	</g>
	<g class="st3">
		<rect x="719.2" y="151.2" class="st4" width="166" height="22.9"/>
	</g>
	<g class="st3">
		<rect x="718.8" y="203.9" class="st4" width="166" height="224.3"/>
	</g>
	
		<linearGradient id="SVGID_2_" gradientUnits="userSpaceOnUse" x1="832.3326" y1="241.4476" x2="832.3326" y2="452.0531" gradientTransform="matrix(1 0 0 -1 0 740)">
		<stop  offset="0" style="stop-color:#808080;stop-opacity:0.25"/>
		<stop  offset="0.54" style="stop-color:#808080;stop-opacity:0.12"/>
		<stop  offset="1" style="stop-color:#808080;stop-opacity:0.1"/>
	</linearGradient>
	<rect x="746.6" y="287.9" class="st5" width="171.4" height="210.6"/>
	<rect x="749.3" y="291.3" class="st4" width="166" height="204"/>
	<rect x="760.5" y="309.2" class="st6" width="33.9" height="33.9"/>
	<rect x="777.5" y="363.5" class="st6" width="120.5" height="6.8"/>
	<rect x="777.5" y="377.9" class="st6" width="120.5" height="6.8"/>
	<rect x="777.5" y="392.3" class="st6" width="120.5" height="6.8"/>
	<rect x="777.5" y="406.7" class="st6" width="120.5" height="6.8"/>
	<rect x="777.5" y="421.2" class="st6" width="120.5" height="6.8"/>
	<rect x="777.5" y="435.6" class="st6" width="120.5" height="6.8"/>
	<rect x="777.5" y="450" class="st6" width="120.5" height="6.8"/>
</g>
<rect x="54" y="249.3" class="st7" width="660.2" height="418.3"/>
<circle class="st4" cx="78.7" cy="265.2" r="9.9"/>
<circle class="st4" cx="109.5" cy="265.2" r="9.9"/>
<circle class="st4" cx="140.2" cy="265.2" r="9.9"/>
<rect x="99.6" y="404.9" class="st4" width="19.8" height="19.8"/>
<rect x="667.8" y="566.6" class="st2" width="19.8" height="19.8"/>
<g>
	<rect x="106" y="360.5" class="st8" width="238.5" height="228"/>
	<path class="st9" d="M301.7,584.3h-24.1l-0.2-2l-1.8-22v0l-1.8-22.9l11.1-47.3l9.5,9.5v45c0,0,5.6,8.3,4.4,10.6s-2.2,2.2-1.1,3.9
		c1.1,1.7,2.2,2.8,1.1,3.9c-1.1,1.5-1.1,3.5,0,5c1.1,1.1,3.3,2.8,1.7,4.4c-1.7,1.7-3.9,0.6-1.7,6.7c0.4,1.1,0.9,2.2,1.5,3.3
		C300.8,583,301.2,583.7,301.7,584.3z"/>
	<polygon class="st10" points="227.4,432 224.1,465.4 258,470.4 260.5,451.2 263,432 	"/>
	<polygon class="st8" points="227.4,432 224.1,465.4 258,470.4 260.5,451.2 263,432 	"/>
	<path class="st10" d="M246.1,389.5c14.7,0,26.7,11.9,26.7,26.7s-12.8,29.6-27.5,29.6c-14.7,0-25.9-14.9-25.9-29.6
		S231.3,389.5,246.1,389.5z"/>
	<path class="st9" d="M178.6,584.3c-0.1-0.2-0.2-0.4-0.3-0.6c-0.2-0.4-0.4-0.9-0.6-1.4c-1.5-3.3-3.3-8-2.2-9.4
		c1.7-2.2,2.2-4.4,1.1-5.6s-4.4,1.1-1.1-1.7c3.3-2.8,4.4-1.1,3.3-4.4s-3.3-1.7-1.1-3.3c2.2-1.7,3.9-1.1,2.8-2.8
		c-1.1-1.7-3.3-1.7-1.1-2.8s3.9,0,3.3-2.8c-0.6-2.8-1.1-1.7,0-2.8c0.3-0.3,1.3-3.1,2.6-7.1c3.8-11.3,10.1-32.1,10.1-32.9
		c0-1.1-8.9-36.1-8.9-36.1l-3.9-2.2c0,0-17.2,11.7-22.8,37.8c-5.6,26.1-9.5,32.8-9.5,32.8s-5.6,1.1-1.7,5c3.9,3.9,3.9,3.3,0.6,5.6
		s-5.6-2.2-3.3,2.2c2.2,4.5,5,3.3,2.8,6.1c-2.2,2.8-6.1,2.8-3.9,5c2.2,2.2-2.2,7.2,0.6,9.5c2.8,2.2,3.9,2.8,3.9,6.7
		c0,1.1,0.1,2.2,0.3,3.3c0.1,0.7,0.2,1.3,0.4,2c0.1,0.5,0.3,0.9,0.3,1.2L178.6,584.3z"/>
	<polygon class="st7" points="178.6,584.3 180.9,584.3 181,583.5 178.3,583.7 168.6,584.3 150.3,585.5 	"/>
	<path class="st9" d="M190.5,560.7l-5-17.2l-0.1-3.8l-2.6-71.3l32.8-11.7l5.9-2.6c0,0,2.7-3.6,4.1-5.5c0.6-0.4,2.9,4.4,4.2,5.5
		c2.2,1.9,2.9,3.4,6.7,6.1c6.1,6.7,11.4,1.8,15.3-0.4c0.5-0.3,1-0.5,1.6-0.8c2.8-1.2,6.4-2.7,6.4-2.7c0,4.3,3.2,7.5,3.2,7.5
		s-0.3,2.2,14.2,7.2c14.5,5,17.2,28.4,17.2,28.4s-17.2,46.7-16.7,50c0.5,2.9-1.5,9-2.1,10.7v0c-0.1,0.3-0.2,0.4-0.2,0.4l1.3,21.6
		l0.1,2h-84.1c-0.2-0.7-0.6-1.3-0.9-2c-0.1-0.2-0.2-0.3-0.3-0.5C186.6,574.1,190.5,560.7,190.5,560.7z"/>
	<path class="st11" d="M219.2,419.6c0.1-0.1-1.3-2.7-1.4-3c-4-12.6-2.3-26.9,9.2-35.1c6.9-4.9,16.9-6.6,25-4
		c4.2,1.3,8.7,2.7,12.8,4.3c5.8,2.4,8,6.9,10.1,12.9c2.7,7.5,0.8,17.5-1.5,24.9c-1,3.1-2.1,6.4-3.5,9.3c-0.4,0.8-1.2,2.6-1.9,3.1
		c0,0,2.2-26.2-10.5-28.6c-12.7-2.5-19-6.4-27.2-0.8C225.8,405.6,222.1,415,219.2,419.6z"/>
	<ellipse class="st10" cx="268.3" cy="422" rx="2.5" ry="3.3"/>
</g>
<g>
	<path class="st12" d="M681.9,502.3h-302c-2.6,0-4.8-2.1-4.8-4.7V208.6c0-2.6,2.1-4.7,4.8-4.7h302c2.6,0,4.8,2.1,4.8,4.7v288.9
		C686.6,500.1,684.5,502.3,681.9,502.3z M379.8,205.8c-1.6,0-2.9,1.3-2.9,2.8v288.9c0,1.6,1.3,2.8,2.9,2.8h302
		c1.6,0,2.9-1.3,2.9-2.8V208.6c0-1.6-1.3-2.8-2.9-2.8H379.8z"/>
	<path class="st13" d="M397.3,229.2c-1.1,0-1.9,0.8-1.9,1.9v78.4c0,1,0.9,1.9,1.9,1.9H476c1.1,0,1.9-0.8,1.9-1.9v-78.4
		c0-1-0.9-1.9-1.9-1.9H397.3z"/>
	<path id="b9d15c13-74bb-46fd-a6fd-5a7002be597d" class="st13" d="M521.1,285.9c-1.3,0-2.3,1.1-2.3,2.3c0,1.2,1,2.2,2.3,2.3h108.4
		c1.3,0,2.3-1,2.3-2.2c0-1.3-1-2.3-2.3-2.3c0,0,0,0,0,0c0,0-0.1,0-0.1,0H521.1z"/>
	<path id="fb98932a-aea9-43a1-946e-96a095a0002f" class="st13" d="M521.1,265.1c-1.3,0-2.3,1.1-2.3,2.3c0,1.2,1,2.2,2.3,2.3h31
		c1.3,0,2.3-1,2.3-2.2s-1-2.3-2.3-2.3c0,0,0,0,0,0c0,0-0.1,0-0.1,0H521.1z"/>
	<path id="a8382d7c-76a2-4f66-b41d-b5784413a475" class="st13" d="M521.1,307.4c-1.3,0-2.3,1.1-2.3,2.3c0,1.2,1,2.2,2.3,2.3h108.4
		c1.3,0,2.3-1,2.3-2.3c0-1.3-1-2.3-2.3-2.3c0,0-0.1,0-0.1,0H521.1z"/>
	<path id="a69b3c31-ebec-4776-89b9-9c88b713759e" class="st12" d="M650,390.2H501c-2.9,0-5.3-1.7-5.3-3.7v-32.3
		c0-2.1,2.4-3.7,5.3-3.7h149c2.9,0,5.3,1.7,5.3,3.7v32.3C655.3,388.5,652.9,390.2,650,390.2z"/>
	<path id="ac481be8-039b-4a38-bb10-2d9a81406e5c" class="st12" d="M549.1,468.6h-149c-2.9,0-5.3-1.7-5.3-3.7v-32.3
		c0-2.1,2.4-3.7,5.3-3.7h149c2.9,0,5.3,1.7,5.3,3.7v32.3C554.4,466.9,552.1,468.6,549.1,468.6z"/>
	<path id="e05581d0-cd6a-412e-af3c-57495fab8d46" class="st4" d="M504.2,486.3h-149c-2.9,0-5.3-1.7-5.3-3.7v-32.3
		c0-2.1,2.4-3.7,5.3-3.7h149c2.9,0,5.3,1.7,5.3,3.7v32.3C509.5,484.7,507.1,486.3,504.2,486.3z M355.2,448.1c-1.7,0-3.2,1-3.2,2.2
		v32.3c0,1.2,1.4,2.2,3.2,2.2h149c1.7,0,3.2-1,3.2-2.2v-32.3c0-1.2-1.4-2.2-3.2-2.2L355.2,448.1z"/>
	<ellipse class="st4" cx="557.8" cy="385.9" rx="12.1" ry="12"/>
	<ellipse class="st4" cx="377" cy="466.2" rx="12.1" ry="12"/>
	<path id="f4993879-8a0d-4ea4-907e-e549be7081a0" class="st4" d="M583.9,377.3c-1.3,0-2.3,1.1-2.3,2.3c0,1.2,1,2.2,2.3,2.3h86.2
		c1.3,0,2.3-1,2.3-2.3c0-1.3-1-2.3-2.3-2.3c0,0-0.1,0-0.1,0H583.9z"/>
	<path id="a649136c-96b9-48c7-9686-75389104c34a" class="st4" d="M583.9,390c-1.3,0-2.3,1.1-2.3,2.3c0,1.2,1,2.2,2.3,2.3h86.2
		c1.3,0,2.3-1,2.3-2.3c0-1.3-1-2.3-2.3-2.3c0,0-0.1,0-0.1,0H583.9z"/>
	<path id="bf4cb793-0df2-4753-9628-c376ea3545d1" class="st4" d="M403,457.6c-1.3,0-2.3,1.1-2.3,2.3c0,1.2,1,2.2,2.3,2.3h86.2
		c1.3,0,2.3-1,2.3-2.3c0-1.3-1-2.3-2.3-2.3c0,0-0.1,0-0.1,0H403z"/>
	<path id="bf2170fd-291c-4664-b596-01f8e04656d6" class="st4" d="M403,470.3c-1.3,0-2.3,1.1-2.3,2.3c0,1.2,1,2.2,2.3,2.3h86.2
		c1.3,0,2.3-1,2.3-2.3c0-1.3-1-2.3-2.3-2.3c0,0-0.1,0-0.1,0H403z"/>
	<path id="acccf4df-3a09-4c7b-a8c8-af469fe66e6d" class="st4" d="M688.8,406h-149c-2.9,0-5.3-1.7-5.3-3.7V370c0-2.1,2.4-3.7,5.3-3.7
		h149c2.9,0,5.3,1.7,5.3,3.7v32.3C694.1,404.3,691.7,406,688.8,406z M539.8,367.7c-1.7,0-3.2,1-3.2,2.2v32.3c0,1.2,1.4,2.2,3.2,2.2
		h149c1.7,0,3.2-1,3.2-2.2V370c0-1.2-1.4-2.2-3.2-2.2L539.8,367.7z"/>
</g>
<path class="st7" d="M241.6,385c0,0-12.3-3-19,7.2C222.6,392.2,227.3,384.3,241.6,385z"/>
<path class="st7" d="M241.6,387.3c0,0-10.9-1.3-17.4,7.4C224.2,394.6,231.3,387.2,241.6,387.3z"/>
<path class="st7" d="M238.2,392.2c0,0-5.2-1.4-10,3.4C228.2,395.6,232.9,391.8,238.2,392.2z"/>
<path class="st7" d="M258.8,388.4c0,0,12.1,0.3,13.2,15.1C271.9,403.5,270.9,391,258.8,388.4z"/>
<path class="st7" d="M258.3,391.4c0,0,8.8,1.8,11.8,13.4C270.2,404.8,267,394.7,258.3,391.4z"/>
<path class="st7" d="M246,400.1c0,0-16.8-8.1-22.8,14.6c0,0,4.2-16.4,18.4-14.8c0,0-7-1.6-12,6.2c0,0,6.9-8.6,16.4-4.6
	c0,0,18.4,0.4,18.2,15.6c0,0,0.7-6.2-1.3-9.2c0,0,2.4,3.9,3.4,9.2c0,0,1.7-10.6-8.1-14.9C248.6,397.8,246,400.1,246,400.1z"/>
<rect x="242.6" y="463.7" class="st7" width="0.2" height="120.8"/>
<path class="st2" d="M242.6,463.7c0,0-3.7,1.9-7.6,9.7c0,0-16.2-16.7-14.1-19.4c1.7-2.2,4.9-5.8,4.9-5.8s12,15.3,17.1,15
	c5-0.3,10.7-5.4,17-7.2c0.3,1,0.7,1.9,0.9,2.9c0.4,2.2,1.8,3.8,2.7,5.9c0,0-11.3,7.7-14.1,9C249.4,473.7,245.1,463.5,242.6,463.7z"
	/>
<g class="st3">
	<circle class="st14" cx="254.5" cy="425.2" r="0.4"/>
	<path class="st14" d="M256.5,427.2c0,0.1,0,0.2,0,0.2S256.5,427.3,256.5,427.2s0-0.2,0-0.2S256.5,427.1,256.5,427.2z"/>
	<circle class="st14" cx="262.5" cy="425.3" r="0.3"/>
	<circle class="st14" cx="258.3" cy="423.6" r="0.4"/>
	<path class="st14" d="M262.8,424.2c0,0-0.1,0-0.2,0s-0.2,0-0.2,0s0.1,0,0.2,0S262.8,424.2,262.8,424.2z"/>
	<circle class="st14" cx="227.4" cy="422.6" r="0.2"/>
	<circle class="st14" cx="229.7" cy="422.4" r="0.3"/>
	<circle class="st14" cx="232.5" cy="422.3" r="0.5"/>
	<circle class="st14" cx="232.8" cy="423.4" r="0.2"/>
	<circle class="st14" cx="236.5" cy="422.9" r="0.6"/>
	<circle class="st14" cx="225.8" cy="426.2" r="0.2"/>
	<circle class="st14" cx="251.7" cy="424.2" r="0.3"/>
	<circle class="st14" cx="249.8" cy="425.2" r="0.4"/>
	<circle class="st14" cx="254.1" cy="422" r="0.3"/>
	<circle class="st14" cx="256.2" cy="428.7" r="0.2"/>
	<circle class="st14" cx="259.3" cy="426.3" r="0.2"/>
	<circle class="st14" cx="251.6" cy="427.6" r="0.2"/>
	<circle class="st14" cx="229.6" cy="427.6" r="0.2"/>
	<circle class="st14" cx="235.5" cy="427" r="0.4"/>
	<circle class="st14" cx="233.4" cy="427.1" r="0.3"/>
	<circle class="st14" cx="230.3" cy="425.3" r="0.3"/>
	<circle class="st14" cx="239.5" cy="424.5" r="0.2"/>
	<circle class="st14" cx="254.5" cy="426.8" r="0.3"/>
</g>
</svg>
